# xmcd
#
# Track frame offsets: 
#        150
#        26414
#        63316
#        84905
#        116838
#        136575
#        167208
#        195942
#        218528
#        252660
#
# Disc length: 3656 seconds
#
# Revision: 0
# Processed by: cddbd v1.5.2PL0 Copyright (c) Steve Scherf et al.
# Submitted via: ExactAudioCopy v0.99pb5
#
DISCID=7e0e460a
DTITLE=Andrzej Chochó³ - It s great again
DYEAR=2013
DGENRE=Blues
TTITLE0=01.Well Go There Together
TTITLE1=02.Round Midnight
TTITLE2=03.It s Great Again
TTITLE3=04.And I Love Her
TTITLE4=05.Smile
TTITLE5=06.I Always Hear This Voice
TTITLE6=07.Rain Song
TTITLE7=08.Mr PC
TTITLE8=09.In My Heart I See You
TTITLE9=10.Silent Request
EXTD=
EXTT0=
EXTT1=
EXTT2=
EXTT3=
EXTT4=
EXTT5=
EXTT6=
EXTT7=
EXTT8=
EXTT9=
PLAYORDER=
